<mxfile host="app.diagrams.net" modified="2022-01-19T13:24:39.391Z" agent="5.0 (Windows NT 10.0; Win64; x64) AppleWebKit/537.36 (KHTML, like Gecko) Chrome/97.0.4692.71 Safari/537.36 Edg/97.0.1072.62" etag="zIdOgViOmKc4h7sCXNxj" version="16.3.0" type="github">
  <diagram id="XCK-Xlbb6O_Y88VYNITX" name="Page-1">
    <mxGraphModel dx="1422" dy="794" grid="1" gridSize="10" guides="1" tooltips="1" connect="1" arrows="1" fold="1" page="1" pageScale="1" pageWidth="827" pageHeight="1169" math="0" shadow="0">
      <root>
        <mxCell id="0" />
        <mxCell id="1" parent="0" />
        <mxCell id="D_To4Py8hLPFhH-VoxAs-11" style="edgeStyle=orthogonalEdgeStyle;rounded=0;orthogonalLoop=1;jettySize=auto;html=1;exitX=0.5;exitY=0;exitDx=0;exitDy=0;entryX=0;entryY=0.5;entryDx=0;entryDy=0;strokeColor=#0000FF;" edge="1" parent="1" source="D_To4Py8hLPFhH-VoxAs-1" target="D_To4Py8hLPFhH-VoxAs-2">
          <mxGeometry relative="1" as="geometry" />
        </mxCell>
        <mxCell id="D_To4Py8hLPFhH-VoxAs-1" value="降水、气温、vpd" style="rounded=1;whiteSpace=wrap;html=1;" vertex="1" parent="1">
          <mxGeometry x="210" y="160" width="120" height="60" as="geometry" />
        </mxCell>
        <mxCell id="D_To4Py8hLPFhH-VoxAs-12" style="edgeStyle=orthogonalEdgeStyle;rounded=0;orthogonalLoop=1;jettySize=auto;html=1;exitX=1;exitY=0.5;exitDx=0;exitDy=0;entryX=0.5;entryY=0;entryDx=0;entryDy=0;strokeColor=#3333FF;" edge="1" parent="1" source="D_To4Py8hLPFhH-VoxAs-2" target="D_To4Py8hLPFhH-VoxAs-3">
          <mxGeometry relative="1" as="geometry" />
        </mxCell>
        <mxCell id="D_To4Py8hLPFhH-VoxAs-13" style="edgeStyle=orthogonalEdgeStyle;rounded=0;orthogonalLoop=1;jettySize=auto;html=1;strokeColor=#0000FF;" edge="1" parent="1" source="D_To4Py8hLPFhH-VoxAs-2" target="D_To4Py8hLPFhH-VoxAs-4">
          <mxGeometry relative="1" as="geometry" />
        </mxCell>
        <mxCell id="D_To4Py8hLPFhH-VoxAs-2" value="co2" style="rounded=1;whiteSpace=wrap;html=1;" vertex="1" parent="1">
          <mxGeometry x="360" y="60" width="120" height="60" as="geometry" />
        </mxCell>
        <mxCell id="D_To4Py8hLPFhH-VoxAs-17" style="edgeStyle=orthogonalEdgeStyle;rounded=0;orthogonalLoop=1;jettySize=auto;html=1;exitX=0;exitY=0.25;exitDx=0;exitDy=0;entryX=1;entryY=0.25;entryDx=0;entryDy=0;strokeColor=#3333FF;" edge="1" parent="1" source="D_To4Py8hLPFhH-VoxAs-3" target="D_To4Py8hLPFhH-VoxAs-1">
          <mxGeometry relative="1" as="geometry">
            <Array as="points">
              <mxPoint x="480" y="235" />
              <mxPoint x="480" y="175" />
            </Array>
          </mxGeometry>
        </mxCell>
        <mxCell id="D_To4Py8hLPFhH-VoxAs-3" value="农机、化肥、用电" style="rounded=1;whiteSpace=wrap;html=1;" vertex="1" parent="1">
          <mxGeometry x="550" y="220" width="120" height="60" as="geometry" />
        </mxCell>
        <mxCell id="D_To4Py8hLPFhH-VoxAs-16" style="edgeStyle=orthogonalEdgeStyle;rounded=0;orthogonalLoop=1;jettySize=auto;html=1;exitX=0.75;exitY=0;exitDx=0;exitDy=0;entryX=0.75;entryY=1;entryDx=0;entryDy=0;strokeColor=#3333FF;" edge="1" parent="1" source="D_To4Py8hLPFhH-VoxAs-4" target="D_To4Py8hLPFhH-VoxAs-2">
          <mxGeometry relative="1" as="geometry" />
        </mxCell>
        <mxCell id="D_To4Py8hLPFhH-VoxAs-18" style="edgeStyle=orthogonalEdgeStyle;rounded=0;orthogonalLoop=1;jettySize=auto;html=1;exitX=0.25;exitY=0;exitDx=0;exitDy=0;entryX=0.5;entryY=1;entryDx=0;entryDy=0;strokeColor=#0000FF;" edge="1" parent="1" source="D_To4Py8hLPFhH-VoxAs-4" target="D_To4Py8hLPFhH-VoxAs-1">
          <mxGeometry relative="1" as="geometry" />
        </mxCell>
        <mxCell id="D_To4Py8hLPFhH-VoxAs-4" value="地表水、地下水" style="rounded=1;whiteSpace=wrap;html=1;" vertex="1" parent="1">
          <mxGeometry x="360" y="320" width="120" height="60" as="geometry" />
        </mxCell>
        <mxCell id="D_To4Py8hLPFhH-VoxAs-19" style="edgeStyle=orthogonalEdgeStyle;rounded=0;orthogonalLoop=1;jettySize=auto;html=1;entryX=0.25;entryY=1;entryDx=0;entryDy=0;strokeColor=#3333FF;exitX=0.25;exitY=0;exitDx=0;exitDy=0;" edge="1" parent="1" source="D_To4Py8hLPFhH-VoxAs-5" target="D_To4Py8hLPFhH-VoxAs-1">
          <mxGeometry relative="1" as="geometry" />
        </mxCell>
        <mxCell id="D_To4Py8hLPFhH-VoxAs-5" value="粮食、水果、播种面积" style="rounded=1;whiteSpace=wrap;html=1;" vertex="1" parent="1">
          <mxGeometry x="210" y="320" width="120" height="60" as="geometry" />
        </mxCell>
      </root>
    </mxGraphModel>
  </diagram>
</mxfile>
